<svg width="50" height="50" viewBox="0 0 50 50" fill="none" xmlns="http://www.w3.org/2000/svg">
<path d="M36.4882 49.9966C32.9668 49.911 29.5227 48.9468 26.4688 47.1915C26.0259 46.9512 25.53 46.8254 25.026 46.8254C24.5221 46.8254 24.0262 46.9512 23.5833 47.1915C14.6527 52.0269 7.47216 49.863 3.80507 46.2164C0.137988 42.5698 -2.05291 35.3499 2.80314 26.4404C3.04341 25.9975 3.16924 25.5017 3.16924 24.9978C3.16924 24.4939 3.04341 23.9981 2.80314 23.5552C-2.03287 14.6256 0.131282 7.44589 3.77833 3.77922C7.42537 0.11256 14.626 -2.03131 23.5566 2.80414C23.9995 3.04439 24.4954 3.17021 24.9993 3.17021C25.5032 3.17021 25.9992 3.04439 26.4421 2.80414C35.3727 -2.03131 42.5533 0.132596 46.2203 3.77922C49.8874 7.42585 52.0315 14.6256 47.1955 23.5552C46.9553 23.9981 46.8294 24.4939 46.8294 24.9978C46.8294 25.5017 46.9553 25.9975 47.1955 26.4404C52.0315 35.37 49.8674 42.5497 46.2203 46.2164C44.9261 47.4549 43.4004 48.4263 41.7305 49.0749C40.0606 49.7236 38.2792 50.0367 36.4882 49.9966ZM23.276 40.3056C23.7804 39.9503 24.3823 39.7597 24.9993 39.7597C25.6163 39.7597 26.2183 39.9503 26.7227 40.3056C32.7343 44.5333 38.7459 45.1878 41.9721 41.9686C45.1983 38.7494 44.5371 32.7586 40.3089 26.7209C39.9536 26.2166 39.7629 25.6147 39.7629 24.9978C39.7629 24.3809 39.9536 23.779 40.3089 23.2747C44.5371 17.2637 45.1917 11.2528 41.9721 8.02698C38.7526 4.80111 32.761 5.46231 26.7227 9.68999C26.2183 10.0453 25.6163 10.2359 24.9993 10.2359C24.3823 10.2359 23.7804 10.0453 23.276 9.68999C17.2644 5.46231 11.2528 4.80779 8.02656 8.02698C4.80033 11.2462 5.4616 17.237 9.68977 23.2747C10.0451 23.779 10.2358 24.3809 10.2358 24.9978C10.2358 25.6147 10.0451 26.2166 9.68977 26.7209C5.4616 32.7319 4.80701 38.7428 8.02656 41.9686C11.2461 45.1945 17.2377 44.5333 23.276 40.3056Z" fill="black"/>
</svg>
